HIERARCHY
ROOT Hips
{
	OFFSET 0.000000 0.000000 0.000000
	CHANNELS 6 Xposition Yposition Zposition Xrotation Yrotation Zrotation
	JOINT LeftUpLeg_virtual
	{
		OFFSET 0.000000 0.000000 0.000000
		CHANNELS 3 Xrotation Yrotation Zrotation
		JOINT LeftUpLeg
		{
			OFFSET 13.026900 -6.336304 -1.092800
			CHANNELS 3 Xrotation Yrotation Zrotation
			JOINT LeftLeg
			{
				OFFSET 0.524474 -46.096886 9.782700
				CHANNELS 3 Xrotation Yrotation Zrotation
				JOINT LeftFoot
				{
					OFFSET -0.524474 -53.427422 -12.948200
					CHANNELS 3 Xrotation Yrotation Zrotation
					JOINT LeftToeBase
					{
						OFFSET 0.192200 -14.009700 16.364100
						CHANNELS 3 Xrotation Yrotation Zrotation
						JOINT LeftToe_End
						{
							OFFSET -1.784700 -0.561700 9.474800
							CHANNELS 3 Xrotation Yrotation Zrotation
							End Site
							{
								OFFSET 0 0 0
							}
						}
					}
				}
			}
		}
	}
	JOINT RightUpLeg_virtual
	{
		OFFSET 0.000000 0.000000 0.000000
		CHANNELS 3 Xrotation Yrotation Zrotation
		JOINT RightUpLeg
		{
			OFFSET -12.883000 -6.336304 -1.092800
			CHANNELS 3 Xrotation Yrotation Zrotation
			JOINT RightLeg
			{
				OFFSET -0.524587 -46.096825 9.782800
				CHANNELS 3 Xrotation Yrotation Zrotation
				JOINT RightFoot
				{
					OFFSET 0.524587 -53.427383 -12.948300
					CHANNELS 3 Xrotation Yrotation Zrotation
					JOINT RightToeBase
					{
						OFFSET -0.192200 -14.009700 16.364100
						CHANNELS 3 Xrotation Yrotation Zrotation
						JOINT RightToe_End
						{
							OFFSET 1.784700 -0.561700 9.474800
							CHANNELS 3 Xrotation Yrotation Zrotation
							End Site
							{
								OFFSET 0 0 0
							}
						}
					}
				}
			}
		}
	}
	JOINT Spine_virtual
	{
		OFFSET 0.000000 0.000000 0.000000
		CHANNELS 3 Xrotation Yrotation Zrotation
		JOINT Spine
		{
			OFFSET 0.072000 7.257294 -0.789700
			CHANNELS 3 Xrotation Yrotation Zrotation
			JOINT Spine1
			{
				OFFSET 0.000000 12.508769 -0.658067
				CHANNELS 3 Xrotation Yrotation Zrotation
				JOINT Spine1_split
				{
					OFFSET 0.000000 12.508769 -0.658067
					CHANNELS 3 Xrotation Yrotation Zrotation
					JOINT Spine2
					{
						OFFSET 0.000000 12.508769 -0.658067
						CHANNELS 3 Xrotation Yrotation Zrotation
						JOINT Neck_virtual
						{
							OFFSET 0.000000 0.000000 0.000000
							CHANNELS 3 Xrotation Yrotation Zrotation
							JOINT Neck
							{
								OFFSET 0.000000 14.033295 7.520400
								CHANNELS 3 Xrotation Yrotation Zrotation
								JOINT Head
								{
									OFFSET 0.000000 8.198502 5.703100
									CHANNELS 3 Xrotation Yrotation Zrotation
									JOINT HeadTop_End
									{
										OFFSET 0.000000 17.760803 13.332701
										CHANNELS 3 Xrotation Yrotation Zrotation
										End Site
										{
											OFFSET 0 0 0
										}
									}
								}
							}
						}
						JOINT LeftShoulder_virtual
						{
							OFFSET 0.000000 0.000000 0.000000
							CHANNELS 3 Xrotation Yrotation Zrotation
							JOINT LeftShoulder
							{
								OFFSET 6.292450 5.785301 -0.669000
								CHANNELS 3 Xrotation Yrotation Zrotation
								JOINT LeftShoulder_split
								{
									OFFSET 6.292450 5.785301 -0.669000
									CHANNELS 3 Xrotation Yrotation Zrotation
									JOINT LeftArm
									{
										OFFSET 13.907140 -6.093903 1.965100
										CHANNELS 3 Xrotation Yrotation Zrotation
										JOINT LeftForeArm
										{
											OFFSET 34.140198 0.000000 0.000000
											CHANNELS 3 Xrotation Yrotation Zrotation
											JOINT LeftHand
											{
												OFFSET 40.960209 0.000000 0.000000
												CHANNELS 3 Xrotation Yrotation Zrotation
												End Site
												{
													OFFSET 0 0 0
												}
											}
										}
									}
								}
							}
						}
						JOINT RightShoulder_virtual
						{
							OFFSET 0.000000 0.000000 0.000000
							CHANNELS 3 Xrotation Yrotation Zrotation
							JOINT RightShoulder
							{
								OFFSET -6.292450 5.785301 -0.669000
								CHANNELS 3 Xrotation Yrotation Zrotation
								JOINT RightShoulder_split
								{
									OFFSET -6.292450 5.785301 -0.669000
									CHANNELS 3 Xrotation Yrotation Zrotation
									JOINT RightArm
									{
										OFFSET -13.907140 -6.093903 1.965100
										CHANNELS 3 Xrotation Yrotation Zrotation
										JOINT RightForeArm
										{
											OFFSET -34.140198 0.000000 0.000000
											CHANNELS 3 Xrotation Yrotation Zrotation
											JOINT RightHand
											{
												OFFSET -40.960209 0.000000 0.000000
												CHANNELS 3 Xrotation Yrotation Zrotation
												End Site
												{
													OFFSET 0 0 0
												}
											}
										}
									}
								}
							}
						}
					}
				}
			}
		}
	}
}
MOTION
Frames: 8
Frame Time: 0.03333333
126.978111 128.044937 228.446869 0.000000 0.000000 0.000000 -125.937869 -62.421112 163.827333 -47.766942 5.783931 16.867803 76.973363 1.841717 -4.178281 1.035842 -11.009369 -0.481990 -1.165903 0.005497 -2.018148 0.000000 0.000000 0.000000 -112.255409 -71.781429 174.284872 -61.468533 0.988003 -37.972256 63.383800 10.455091 -5.379448 -4.351871 -2.232129 15.580234 5.078663 0.204978 -2.310412 0.000000 0.000000 0.000000 -122.675416 -64.437439 169.375427 14.923205 4.518133 1.065011 -2.708328 1.849595 6.997154 0.227378 -0.237427 1.670487 0.000000 0.000000 0.000000 1.353750 1.826536 5.425525 18.016352 3.890945 10.864492 19.905760 36.413108 -22.219912 0.000000 0.000000 0.000000 0.346048 1.790611 6.346052 2.125422 -6.511475 6.304273 4.352263 0.661175 1.493929 -5.323575 10.328602 1.349729 2.292825 -37.866856 -1.302594 0.000000 0.000000 0.000000 -1.531295 1.942657 6.098156 3.767756 2.574812 17.378165 -0.382392 1.158021 1.161487 -14.742632 23.044112 13.123294 1.631216 19.557799 -3.107390 0.000000 0.000000 0.000000 
135.026154 119.810684 240.785980 0.000000 0.000000 0.000000 -123.629689 -59.157225 165.795397 -46.827091 5.162191 13.687378 75.749332 3.259758 -2.620883 4.620512 -8.075888 0.355189 -0.289173 0.114944 -1.968886 0.000000 0.000000 0.000000 -111.945291 -66.461661 173.505820 -62.815365 1.172323 -34.750575 57.922675 9.336585 -4.781231 2.824829 -2.585040 14.578721 2.177425 -0.079829 -1.640948 0.000000 0.000000 0.000000 -122.184243 -60.331252 168.539822 16.064303 4.865245 0.438031 -1.827609 2.695790 6.222514 0.256682 0.208948 2.497416 0.000000 0.000000 0.000000 1.282983 2.645000 4.439768 18.043656 3.946448 9.078297 18.716079 34.653180 -21.165921 0.000000 0.000000 0.000000 0.617928 2.566543 5.237825 2.329915 -6.313006 6.067980 3.213747 2.199788 0.966776 -7.255209 15.121660 2.686416 2.962176 -38.670721 -0.619950 0.000000 0.000000 0.000000 -1.261051 2.871765 5.164379 3.467183 5.116916 18.606045 -0.813604 -0.781324 1.061896 -15.845337 22.474915 16.240735 2.209196 26.898477 -2.537843 0.000000 0.000000 0.000000 
142.658875 108.598930 254.476242 0.000000 0.000000 0.000000 -120.478950 -53.041682 169.005108 -44.693930 5.999552 12.015030 72.734521 4.755910 -1.220652 6.108007 -3.565724 0.336684 0.179082 0.294272 -1.882181 0.000000 0.000000 0.000000 -112.450985 -58.226229 171.986007 -66.445016 4.408751 -29.737752 51.852535 7.839224 -4.541333 10.070837 -1.841331 14.594745 0.030390 -0.472452 -0.962422 0.000000 0.000000 0.000000 -119.982737 -54.039610 170.109645 17.388885 4.649584 0.190341 -0.831607 3.427929 5.926606 0.524767 0.566867 2.935079 0.000000 0.000000 0.000000 1.319047 3.445316 4.074882 17.592313 3.837038 7.466198 16.588163 32.582594 -19.705147 0.000000 0.000000 0.000000 0.975359 3.295622 4.853385 2.437832 -5.020548 4.850235 2.811596 4.091537 -0.540800 -9.518632 21.095022 3.225642 2.749059 -45.882974 -0.660027 0.000000 0.000000 0.000000 -1.020095 3.699522 4.896760 3.227584 6.870141 19.557876 -1.188760 -1.659716 1.252820 -18.101232 20.452534 20.118146 2.152332 37.370868 -1.390611 0.000000 0.000000 0.000000 
149.808502 94.631844 268.810913 0.000000 0.000000 0.000000 -117.776749 -43.806931 171.915424 -41.677179 9.079802 12.257446 67.862471 5.297131 -0.146413 4.829325 0.935213 -0.808456 0.155751 0.428861 -1.484371 0.000000 0.000000 0.000000 -112.795814 -47.604219 170.590559 -73.394447 9.429081 -22.954258 46.434898 6.613477 -4.714883 16.084276 0.231019 15.405756 -0.148008 -0.803841 -0.602295 0.000000 0.000000 0.000000 -117.314291 -45.607973 172.530073 18.733085 3.668123 0.151272 0.219769 3.883599 6.195784 0.822783 -0.581083 2.576001 0.000000 0.000000 0.000000 1.572184 4.084430 4.399962 17.064360 3.483769 6.243636 13.811904 29.894683 -17.923103 0.000000 0.000000 0.000000 1.417701 3.896371 5.286677 2.647881 -3.601626 2.573368 3.353958 5.390641 -2.239590 -10.849759 26.481174 2.310779 2.094047 -57.379197 -1.274681 0.000000 0.000000 0.000000 -0.766103 4.319242 5.413713 3.174756 7.406182 20.221231 -1.535675 -1.331665 1.397331 -20.390024 17.503290 24.363015 0.780258 48.630257 0.703398 0.000000 0.000000 0.000000 
156.669342 79.703262 282.883179 0.000000 0.000000 0.000000 -115.929101 -32.398804 173.743320 -39.768397 14.609962 14.944232 62.869569 4.283460 -0.034240 1.333631 4.466665 -2.683006 0.200603 0.580146 -0.783631 0.000000 0.000000 0.000000 -112.447460 -35.712238 170.116325 -83.950320 13.879142 -14.603448 43.773289 5.998333 -5.044437 20.489567 3.216469 16.381053 1.285970 -0.972157 -0.514729 0.000000 0.000000 0.000000 -114.850013 -35.260165 174.930215 19.936199 2.071815 0.155055 1.236921 4.042330 6.785758 1.220283 -2.052734 1.951967 0.000000 0.000000 0.000000 1.994987 4.489681 5.126147 16.907433 2.770141 5.605488 11.562699 26.414753 -16.208406 0.000000 0.000000 0.000000 1.921611 4.263318 6.160206 3.133267 -2.724414 -0.552849 4.560802 4.945209 -3.110630 -10.433285 28.604515 0.002297 2.393226 -67.317354 -1.431776 0.000000 0.000000 0.000000 -0.301529 4.700044 6.342125 3.302928 6.350559 21.010350 -1.895471 -0.471520 1.213931 -21.525623 14.751595 28.335767 -2.299191 58.198949 3.828099 0.000000 0.000000 0.000000 
163.617661 66.001610 296.395996 0.000000 0.000000 0.000000 -114.690925 -20.297149 174.370030 -39.184915 21.308792 20.351677 60.508919 2.227104 -1.439788 -3.219146 6.881512 -3.961737 0.684121 0.738770 -0.008778 0.000000 0.000000 0.000000 -111.072673 -24.197316 170.172264 -95.512389 15.535617 -5.881870 44.547570 5.740422 -5.215591 23.301966 6.342694 16.760794 3.321220 -1.011295 -0.496793 0.000000 0.000000 0.000000 -112.665186 -24.519843 176.962388 20.684263 0.069713 0.055797 2.122095 3.958129 7.243717 1.251823 -4.205500 1.125912 0.000000 0.000000 0.000000 2.513781 4.658036 5.757076 17.312347 1.865120 5.617347 10.689656 22.151075 -14.599418 0.000000 0.000000 0.000000 2.490464 4.429377 6.822588 3.861812 -3.097567 -4.005639 5.419763 3.209169 -2.644027 -7.522994 26.762010 -3.262081 4.678744 -71.325138 0.234526 0.000000 0.000000 0.000000 0.350965 4.836274 7.122563 3.476825 3.569201 22.114797 -1.875899 0.901818 0.376403 -21.125280 13.147137 31.440365 -6.627992 64.855529 7.530206 0.000000 0.000000 0.000000 
170.654190 55.564274 307.850220 0.000000 0.000000 0.000000 -113.510518 -10.124670 174.371219 -39.886980 27.323689 27.928961 62.123514 0.169927 -4.080222 -7.700288 8.399458 -3.179351 1.753266 0.969549 0.521334 0.000000 0.000000 0.000000 -108.952883 -14.534953 170.942163 -104.596909 14.163219 1.090102 48.944521 5.374804 -4.909239 25.217239 8.655541 15.813473 3.926341 -0.984031 -0.210181 0.000000 0.000000 0.000000 -111.012219 -14.657743 177.802706 20.406645 -1.846773 -0.062882 2.706098 3.764246 7.107088 0.793365 -7.326264 0.179894 0.000000 0.000000 0.000000 3.039969 4.641955 5.738014 18.077161 0.689968 6.024453 11.476427 17.185096 -13.055683 0.000000 0.000000 0.000000 2.996397 4.432684 6.677432 4.685865 -4.721240 -6.722697 5.614167 0.975708 -1.301217 -2.768949 20.789409 -5.751239 6.957705 -69.774043 2.180121 0.000000 0.000000 0.000000 1.132016 4.866243 7.180966 3.820670 -0.870108 23.348998 -1.947244 1.860689 -0.803607 -19.683454 13.150228 33.051801 -10.364307 68.440633 10.070247 0.000000 0.000000 0.000000 
177.714951 49.921581 317.244873 0.000000 0.000000 0.000000 -112.178180 -2.939463 173.916738 -41.694101 30.410966 36.598913 67.451431 -1.705703 -6.993824 -9.865751 8.607561 -0.947861 2.114972 1.260316 0.727191 0.000000 0.000000 0.000000 -106.656607 -7.329277 171.928839 -109.247387 11.414420 6.055756 55.460996 4.656806 -4.101121 25.943849 9.803363 13.488847 2.277906 -0.956722 0.528946 0.000000 0.000000 0.000000 -109.895988 -6.906594 177.973556 18.967562 -3.160297 -0.035232 2.860729 3.596624 6.090431 -0.082846 -9.632644 -0.053176 0.000000 0.000000 0.000000 3.498714 4.530219 4.816516 18.691147 -0.545282 6.443483 13.777351 11.962065 -11.551193 0.000000 0.000000 0.000000 3.323526 4.322019 5.378637 5.498640 -6.768593 -7.851863 5.900614 -0.316753 -0.402687 3.339407 12.686407 -5.682252 8.152396 -67.134838 3.408924 0.000000 0.000000 0.000000 1.922316 4.814599 6.161343 4.297811 -6.640088 24.605174 -1.842266 2.719158 -1.693434 -18.364907 14.347873 32.675598 -12.590117 70.506957 10.770869 0.000000 0.000000 0.000000 
